<?xml version="1.0" encoding="utf-8"?>
<!-- Generator: Adobe Illustrator 21.0.0, SVG Export Plug-In . SVG Version: 6.00 Build 0)  -->
<svg version="1.1" id="Layer_1" xmlns="http://www.w3.org/2000/svg" xmlns:xlink="http://www.w3.org/1999/xlink" x="0px" y="0px"
	 viewBox="0 0 269.2 126.5" style="enable-background:new 0 0 269.2 126.5;" xml:space="preserve">
<style type="text/css">
	.st0{fill:#7A98CE;}
	.st1{opacity:0.87;fill:#7A98CE;stroke:#BECEE6;stroke-width:2;stroke-miterlimit:10;}
</style>
<path class="st0" d="M148.5,7.7h4.7c0.9,0,1.6,0.1,2.3,0.4c0.6,0.3,1.2,0.7,1.6,1.2s0.7,1.1,0.9,1.8c0.2,0.7,0.3,1.4,0.3,2.2
	s-0.1,1.5-0.3,2.2c-0.2,0.7-0.5,1.3-0.9,1.8s-0.9,0.9-1.6,1.2c-0.6,0.3-1.4,0.4-2.3,0.4h-4.7V7.7z M150.5,17.5h2
	c0.8,0,1.4-0.1,1.9-0.3s0.9-0.5,1.2-0.9c0.3-0.4,0.5-0.8,0.6-1.3c0.1-0.5,0.2-1,0.2-1.6s-0.1-1.1-0.2-1.6s-0.3-0.9-0.6-1.3
	c-0.3-0.4-0.7-0.7-1.2-0.9s-1.1-0.3-1.9-0.3h-2V17.5z"/>
<path class="st0" d="M160.1,7.7h8.2v1.7h-6.2v3h5.8V14h-5.8v3.3h6.3v1.7h-8.3V7.7z"/>
<path class="st0" d="M170.2,7.7h2v9.7h5.8v1.7h-7.8V7.7z"/>
<path class="st0" d="M182.4,7.7h2.1l4.4,11.4h-2.1l-1.1-3h-4.6l-1.1,3H178L182.4,7.7z M181.7,14.5h3.5l-1.7-4.9h0L181.7,14.5z"/>
<path class="st0" d="M188.5,7.7h2l2.1,8.7h0l2.3-8.7h2l2.2,8.7h0l2.1-8.7h2l-3.2,11.4h-2l-2.3-8.7h0l-2.3,8.7h-2.1L188.5,7.7z"/>
<path class="st0" d="M207.4,7.7h2.1l4.4,11.4h-2.1l-1.1-3h-4.6l-1.1,3H203L207.4,7.7z M206.7,14.5h3.5l-1.7-4.9h0L206.7,14.5z"/>
<path class="st0" d="M215,7.7h5.5c1.3,0,2.2,0.3,2.8,0.8c0.6,0.5,0.9,1.3,0.9,2.3c0,0.5-0.1,1-0.2,1.4c-0.2,0.4-0.3,0.6-0.6,0.9
	c-0.2,0.2-0.4,0.4-0.6,0.5c-0.2,0.1-0.4,0.2-0.5,0.2v0c0.2,0,0.4,0.1,0.6,0.2c0.2,0.1,0.4,0.2,0.6,0.4c0.2,0.2,0.3,0.4,0.4,0.7
	s0.2,0.7,0.2,1.1c0,0.7,0.1,1.3,0.2,1.8c0.1,0.5,0.3,0.9,0.5,1.2h-2.1c-0.1-0.2-0.2-0.5-0.3-0.8c0-0.3,0-0.6,0-0.9
	c0-0.5,0-1-0.1-1.4c-0.1-0.4-0.2-0.7-0.4-0.9c-0.2-0.3-0.4-0.4-0.7-0.6c-0.3-0.1-0.7-0.2-1.1-0.2H217v4.7h-2V7.7z M217,12.9h3.3
	c0.6,0,1.1-0.2,1.5-0.5c0.3-0.3,0.5-0.8,0.5-1.4c0-0.4-0.1-0.7-0.2-0.9s-0.3-0.4-0.4-0.5s-0.4-0.2-0.6-0.3c-0.2,0-0.5-0.1-0.7-0.1
	H217V12.9z"/>
<path class="st0" d="M226.3,7.7h8.2v1.7h-6.2v3h5.8V14h-5.8v3.3h6.3v1.7h-8.3V7.7z"/>
<path class="st0" d="M148.5,30.7h7.9v1.7h-5.9v3h5.2V37h-5.2v5.1h-2V30.7z"/>
<path class="st0" d="M158,30.7h2v9.7h5.8v1.7H158V30.7z"/>
<path class="st0" d="M172.1,30.4c0.9,0,1.6,0.2,2.3,0.5c0.7,0.3,1.3,0.8,1.7,1.3c0.5,0.5,0.8,1.2,1.1,1.9s0.4,1.5,0.4,2.3
	c0,0.8-0.1,1.6-0.4,2.3s-0.6,1.4-1.1,1.9c-0.5,0.5-1,1-1.7,1.3s-1.4,0.5-2.3,0.5s-1.6-0.2-2.3-0.5c-0.7-0.3-1.3-0.7-1.7-1.3
	c-0.5-0.5-0.8-1.2-1.1-1.9c-0.3-0.7-0.4-1.5-0.4-2.3c0-0.8,0.1-1.6,0.4-2.3c0.2-0.7,0.6-1.4,1.1-1.9c0.5-0.5,1-1,1.7-1.3
	C170.5,30.6,171.2,30.4,172.1,30.4z M172.1,32c-0.6,0-1.1,0.1-1.6,0.4c-0.4,0.2-0.8,0.6-1.1,1c-0.3,0.4-0.5,0.9-0.6,1.4
	c-0.1,0.5-0.2,1.1-0.2,1.6s0.1,1.1,0.2,1.6c0.1,0.5,0.3,1,0.6,1.4c0.3,0.4,0.6,0.7,1.1,1c0.4,0.2,1,0.4,1.6,0.4s1.1-0.1,1.6-0.4
	c0.4-0.2,0.8-0.6,1.1-1c0.3-0.4,0.5-0.9,0.6-1.4c0.1-0.5,0.2-1.1,0.2-1.6s-0.1-1.1-0.2-1.6c-0.1-0.5-0.3-1-0.6-1.4
	c-0.3-0.4-0.6-0.7-1.1-1C173.2,32.1,172.7,32,172.1,32z"/>
<path class="st0" d="M179.4,30.7h5.5c1.3,0,2.2,0.3,2.8,0.8c0.6,0.5,0.9,1.3,0.9,2.3c0,0.5-0.1,1-0.2,1.4c-0.2,0.4-0.3,0.6-0.6,0.9
	c-0.2,0.2-0.4,0.4-0.6,0.5c-0.2,0.1-0.4,0.2-0.5,0.2v0c0.2,0,0.4,0.1,0.6,0.2c0.2,0.1,0.4,0.2,0.6,0.4c0.2,0.2,0.3,0.4,0.4,0.7
	s0.2,0.7,0.2,1.1c0,0.7,0.1,1.3,0.2,1.8c0.1,0.5,0.3,0.9,0.5,1.2h-2.1c-0.1-0.2-0.2-0.5-0.3-0.8c0-0.3,0-0.6,0-0.9
	c0-0.5,0-1-0.1-1.4c-0.1-0.4-0.2-0.7-0.4-0.9c-0.2-0.3-0.4-0.4-0.7-0.6c-0.3-0.1-0.7-0.2-1.1-0.2h-2.9v4.7h-2V30.7z M181.4,35.9h3.3
	c0.6,0,1.1-0.2,1.5-0.5c0.3-0.3,0.5-0.8,0.5-1.4c0-0.4-0.1-0.7-0.2-0.9s-0.3-0.4-0.4-0.5s-0.4-0.2-0.6-0.3c-0.2,0-0.5-0.1-0.7-0.1
	h-3.2V35.9z"/>
<path class="st0" d="M190.6,30.7h2v11.4h-2V30.7z"/>
<path class="st0" d="M195.1,30.7h4.7c0.9,0,1.6,0.1,2.3,0.4c0.6,0.3,1.2,0.7,1.6,1.2s0.7,1.1,0.9,1.8c0.2,0.7,0.3,1.4,0.3,2.2
	s-0.1,1.5-0.3,2.2c-0.2,0.7-0.5,1.3-0.9,1.8s-0.9,0.9-1.6,1.2c-0.6,0.3-1.4,0.4-2.3,0.4h-4.7V30.7z M197.1,40.5h2
	c0.8,0,1.4-0.1,1.9-0.3s0.9-0.5,1.2-0.9c0.3-0.4,0.5-0.8,0.6-1.3c0.1-0.5,0.2-1,0.2-1.6s-0.1-1.1-0.2-1.6s-0.3-0.9-0.6-1.3
	c-0.3-0.4-0.7-0.7-1.2-0.9s-1.1-0.3-1.9-0.3h-2V40.5z"/>
<path class="st0" d="M209.7,30.7h2.1l4.4,11.4h-2.1l-1.1-3h-4.6l-1.1,3h-2.1L209.7,30.7z M209,37.5h3.5l-1.7-4.9h0L209,37.5z"/>
<path class="st0" d="M158.5,65.1h-1.3l-0.3-1.3c-0.5,0.6-1.1,1-1.6,1.3s-1.1,0.4-1.8,0.4c-0.9,0-1.6-0.2-2.3-0.5
	c-0.7-0.3-1.3-0.7-1.7-1.3c-0.5-0.5-0.8-1.2-1.1-1.9c-0.3-0.7-0.4-1.5-0.4-2.3c0-0.8,0.1-1.6,0.4-2.3c0.2-0.7,0.6-1.4,1.1-1.9
	c0.5-0.5,1-1,1.7-1.3c0.7-0.3,1.4-0.5,2.3-0.5c0.6,0,1.2,0.1,1.8,0.2c0.6,0.2,1.1,0.4,1.5,0.7s0.8,0.7,1.1,1.2
	c0.3,0.5,0.5,1.1,0.5,1.7h-2c-0.1-0.4-0.2-0.7-0.3-1c-0.2-0.3-0.4-0.5-0.7-0.7c-0.3-0.2-0.6-0.3-0.9-0.4c-0.3-0.1-0.7-0.1-1-0.1
	c-0.6,0-1.1,0.1-1.6,0.4c-0.4,0.2-0.8,0.6-1.1,1c-0.3,0.4-0.5,0.9-0.6,1.4c-0.1,0.5-0.2,1.1-0.2,1.6s0.1,1.1,0.2,1.6
	c0.1,0.5,0.3,1,0.6,1.4c0.3,0.4,0.6,0.7,1.1,1c0.4,0.2,1,0.4,1.6,0.4c0.5,0,1-0.1,1.4-0.2c0.4-0.1,0.7-0.4,1-0.6
	c0.3-0.3,0.5-0.6,0.6-1s0.2-0.8,0.2-1.3h-3v-1.5h4.9V65.1z"/>
<path class="st0" d="M160.7,53.7h8.2v1.7h-6.2v3h5.8V60h-5.8v3.3h6.3v1.7h-8.3V53.7z"/>
<path class="st0" d="M175.6,53.4c0.9,0,1.6,0.2,2.3,0.5c0.7,0.3,1.3,0.8,1.7,1.3c0.5,0.5,0.8,1.2,1.1,1.9s0.4,1.5,0.4,2.3
	c0,0.8-0.1,1.6-0.4,2.3s-0.6,1.4-1.1,1.9c-0.5,0.5-1,1-1.7,1.3s-1.4,0.5-2.3,0.5s-1.6-0.2-2.3-0.5c-0.7-0.3-1.3-0.7-1.7-1.3
	c-0.5-0.5-0.8-1.2-1.1-1.9c-0.3-0.7-0.4-1.5-0.4-2.3c0-0.8,0.1-1.6,0.4-2.3c0.2-0.7,0.6-1.4,1.1-1.9c0.5-0.5,1-1,1.7-1.3
	C174,53.6,174.8,53.4,175.6,53.4z M175.6,55c-0.6,0-1.1,0.1-1.6,0.4c-0.4,0.2-0.8,0.6-1.1,1c-0.3,0.4-0.5,0.9-0.6,1.4
	c-0.1,0.5-0.2,1.1-0.2,1.6s0.1,1.1,0.2,1.6c0.1,0.5,0.3,1,0.6,1.4c0.3,0.4,0.6,0.7,1.1,1c0.4,0.2,1,0.4,1.6,0.4s1.1-0.1,1.6-0.4
	c0.4-0.2,0.8-0.6,1.1-1c0.3-0.4,0.5-0.9,0.6-1.4c0.1-0.5,0.2-1.1,0.2-1.6s-0.1-1.1-0.2-1.6c-0.1-0.5-0.3-1-0.6-1.4
	c-0.3-0.4-0.6-0.7-1.1-1C176.8,55.1,176.2,55,175.6,55z"/>
<path class="st0" d="M182.9,53.7h5.5c1.3,0,2.2,0.3,2.8,0.8c0.6,0.5,0.9,1.3,0.9,2.3c0,0.5-0.1,1-0.2,1.4c-0.2,0.4-0.3,0.6-0.6,0.9
	c-0.2,0.2-0.4,0.4-0.6,0.5c-0.2,0.1-0.4,0.2-0.5,0.2v0c0.2,0,0.4,0.1,0.6,0.2c0.2,0.1,0.4,0.2,0.6,0.4c0.2,0.2,0.3,0.4,0.4,0.7
	s0.2,0.7,0.2,1.1c0,0.7,0.1,1.3,0.2,1.8c0.1,0.5,0.3,0.9,0.5,1.2h-2.1c-0.1-0.2-0.2-0.5-0.3-0.8c0-0.3,0-0.6,0-0.9
	c0-0.5,0-1-0.1-1.4c-0.1-0.4-0.2-0.7-0.4-0.9c-0.2-0.3-0.4-0.4-0.7-0.6c-0.3-0.1-0.7-0.2-1.1-0.2h-2.9v4.7h-2V53.7z M184.9,58.9h3.3
	c0.6,0,1.1-0.2,1.5-0.5c0.3-0.3,0.5-0.8,0.5-1.4c0-0.4-0.1-0.7-0.2-0.9s-0.3-0.4-0.4-0.5s-0.4-0.2-0.6-0.3c-0.2,0-0.5-0.1-0.7-0.1
	h-3.2V58.9z"/>
<path class="st0" d="M204.2,65.1h-1.3l-0.3-1.3c-0.5,0.6-1.1,1-1.6,1.3s-1.1,0.4-1.8,0.4c-0.9,0-1.6-0.2-2.3-0.5
	c-0.7-0.3-1.3-0.7-1.7-1.3c-0.5-0.5-0.8-1.2-1.1-1.9c-0.3-0.7-0.4-1.5-0.4-2.3c0-0.8,0.1-1.6,0.4-2.3c0.2-0.7,0.6-1.4,1.1-1.9
	c0.5-0.5,1-1,1.7-1.3c0.7-0.3,1.4-0.5,2.3-0.5c0.6,0,1.2,0.1,1.8,0.2c0.6,0.2,1.1,0.4,1.5,0.7s0.8,0.7,1.1,1.2
	c0.3,0.5,0.5,1.1,0.5,1.7h-2c-0.1-0.4-0.2-0.7-0.3-1c-0.2-0.3-0.4-0.5-0.7-0.7c-0.3-0.2-0.6-0.3-0.9-0.4c-0.3-0.1-0.7-0.1-1-0.1
	c-0.6,0-1.1,0.1-1.6,0.4c-0.4,0.2-0.8,0.6-1.1,1c-0.3,0.4-0.5,0.9-0.6,1.4c-0.1,0.5-0.2,1.1-0.2,1.6s0.1,1.1,0.2,1.6
	c0.1,0.5,0.3,1,0.6,1.4c0.3,0.4,0.6,0.7,1.1,1c0.4,0.2,1,0.4,1.6,0.4c0.5,0,1-0.1,1.4-0.2c0.4-0.1,0.7-0.4,1-0.6
	c0.3-0.3,0.5-0.6,0.6-1s0.2-0.8,0.2-1.3h-3v-1.5h4.9V65.1z"/>
<path class="st0" d="M206.3,53.7h2v11.4h-2V53.7z"/>
<path class="st0" d="M213.8,53.7h2.1l4.4,11.4h-2.1l-1.1-3h-4.6l-1.1,3h-2.1L213.8,53.7z M213.1,60.5h3.5l-1.7-4.9h0L213.1,60.5z"/>
<path class="st0" d="M148.5,76.7h2.1l5.2,8.4h0v-8.4h1.9v11.4h-2.1l-5.2-8.4h0v8.4h-1.9V76.7z"/>
<path class="st0" d="M160.1,76.7h8.2v1.7h-6.2v3h5.8V83h-5.8v3.3h6.3v1.7h-8.3V76.7z"/>
<path class="st0" d="M169.1,76.7h2l2.1,8.7h0l2.3-8.7h2l2.2,8.7h0l2.1-8.7h2l-3.2,11.4h-2l-2.3-8.7h0l-2.3,8.7h-2.1L169.1,76.7z"/>
<path class="st0" d="M195.9,84.4c0,0.5,0,1-0.1,1.5c-0.1,0.5-0.3,0.9-0.5,1.3c-0.3,0.4-0.6,0.7-1.1,0.9c-0.5,0.2-1.2,0.3-2,0.3
	c-0.6,0-1.1-0.1-1.6-0.3c-0.4-0.2-0.8-0.4-1.1-0.8c-0.3-0.3-0.5-0.7-0.6-1.2c-0.1-0.4-0.2-0.9-0.2-1.5v-0.6h2v0.6
	c0,0.7,0.1,1.2,0.3,1.5c0.2,0.4,0.6,0.5,1.2,0.5c0.3,0,0.6,0,0.8-0.1s0.4-0.2,0.5-0.4c0.1-0.2,0.2-0.4,0.2-0.7
	c0-0.3,0.1-0.6,0.1-0.9v-7.9h2V84.4z"/>
<path class="st0" d="M198.3,76.7h8.2v1.7h-6.2v3h5.8V83h-5.8v3.3h6.3v1.7h-8.3V76.7z"/>
<path class="st0" d="M208.4,76.7h5.5c1.3,0,2.2,0.3,2.8,0.8c0.6,0.5,0.9,1.3,0.9,2.3c0,0.5-0.1,1-0.2,1.4c-0.2,0.4-0.3,0.6-0.6,0.9
	c-0.2,0.2-0.4,0.4-0.6,0.5c-0.2,0.1-0.4,0.2-0.5,0.2v0c0.2,0,0.4,0.1,0.6,0.2c0.2,0.1,0.4,0.2,0.6,0.4c0.2,0.2,0.3,0.4,0.4,0.7
	s0.2,0.7,0.2,1.1c0,0.7,0.1,1.3,0.2,1.8c0.1,0.5,0.3,0.9,0.5,1.2h-2.1c-0.1-0.2-0.2-0.5-0.3-0.8c0-0.3,0-0.6,0-0.9
	c0-0.5,0-1-0.1-1.4c-0.1-0.4-0.2-0.7-0.4-0.9c-0.2-0.3-0.4-0.4-0.7-0.6c-0.3-0.1-0.7-0.2-1.1-0.2h-2.9v4.7h-2V76.7z M210.4,81.9h3.3
	c0.6,0,1.1-0.2,1.5-0.5c0.3-0.3,0.5-0.8,0.5-1.4c0-0.4-0.1-0.7-0.2-0.9s-0.3-0.4-0.4-0.5s-0.4-0.2-0.6-0.3c-0.2,0-0.5-0.1-0.7-0.1
	h-3.2V81.9z"/>
<path class="st0" d="M221,84.3c0,0.4,0.1,0.8,0.2,1.1c0.1,0.3,0.4,0.6,0.6,0.8s0.6,0.3,0.9,0.4s0.7,0.1,1.1,0.1c0.4,0,0.8,0,1.1-0.2
	s0.6-0.2,0.8-0.4s0.3-0.3,0.4-0.6s0.1-0.4,0.1-0.6c0-0.4-0.1-0.8-0.3-1s-0.4-0.4-0.6-0.4c-0.4-0.1-0.9-0.3-1.4-0.4
	c-0.5-0.1-1.2-0.3-2-0.5c-0.5-0.1-0.9-0.3-1.2-0.5s-0.6-0.4-0.8-0.7c-0.2-0.3-0.3-0.5-0.4-0.8s-0.1-0.6-0.1-0.9
	c0-0.6,0.1-1.1,0.4-1.5c0.2-0.4,0.6-0.8,1-1c0.4-0.3,0.8-0.5,1.3-0.6c0.5-0.1,1-0.2,1.5-0.2c0.6,0,1.2,0.1,1.7,0.2
	c0.5,0.2,1,0.4,1.4,0.7c0.4,0.3,0.7,0.7,1,1.1s0.4,1,0.4,1.6h-2c-0.1-0.7-0.3-1.3-0.8-1.6c-0.4-0.3-1-0.5-1.7-0.5
	c-0.2,0-0.5,0-0.7,0.1s-0.5,0.1-0.7,0.2c-0.2,0.1-0.4,0.3-0.5,0.5c-0.1,0.2-0.2,0.4-0.2,0.7c0,0.4,0.1,0.7,0.4,1s0.6,0.4,1,0.5
	c0,0,0.2,0.1,0.5,0.1c0.3,0.1,0.6,0.2,1,0.3c0.4,0.1,0.7,0.2,1.1,0.3s0.6,0.2,0.7,0.2c0.4,0.1,0.7,0.3,1,0.5
	c0.3,0.2,0.5,0.4,0.7,0.7s0.3,0.5,0.4,0.8s0.1,0.6,0.1,0.9c0,0.6-0.1,1.2-0.4,1.6c-0.3,0.5-0.6,0.8-1,1.1c-0.4,0.3-0.9,0.5-1.5,0.6
	c-0.5,0.1-1.1,0.2-1.7,0.2c-0.7,0-1.3-0.1-1.8-0.2s-1.1-0.4-1.5-0.7c-0.4-0.3-0.8-0.8-1-1.3c-0.3-0.5-0.4-1.1-0.4-1.8H221z"/>
<path class="st0" d="M230,76.7h8.2v1.7H232v3h5.8V83H232v3.3h6.3v1.7H230V76.7z"/>
<path class="st0" d="M243.1,83.6l-4.3-6.9h2.3l3,5.1l3-5.1h2.2l-4.3,6.9v4.5h-2V83.6z"/>
<path class="st0" d="M148.5,99.7h5c0.8,0,1.5,0.1,2,0.4c0.5,0.2,0.9,0.5,1.2,0.9c0.3,0.4,0.5,0.7,0.6,1.2c0.1,0.4,0.2,0.8,0.2,1.2
	c0,0.4-0.1,0.7-0.2,1.1c-0.1,0.4-0.3,0.8-0.6,1.1c-0.3,0.4-0.7,0.6-1.2,0.9c-0.5,0.2-1.2,0.3-2,0.3h-3v4.4h-2V99.7z M150.5,105.1
	h2.9c0.2,0,0.5,0,0.7-0.1c0.2-0.1,0.5-0.2,0.6-0.3c0.2-0.1,0.4-0.3,0.5-0.6c0.1-0.2,0.2-0.5,0.2-0.9c0-0.4-0.1-0.7-0.2-0.9
	c-0.1-0.2-0.3-0.4-0.4-0.6s-0.4-0.2-0.6-0.3s-0.5-0.1-0.8-0.1h-3V105.1z"/>
<path class="st0" d="M159.2,99.7h8.2v1.7h-6.2v3h5.8v1.6h-5.8v3.3h6.3v1.7h-8.3V99.7z"/>
<path class="st0" d="M169.2,99.7h2.1l5.2,8.4h0v-8.4h1.9v11.4h-2.1l-5.2-8.4h0v8.4h-1.9V99.7z"/>
<path class="st0" d="M180.8,99.7h2.1l5.2,8.4h0v-8.4h1.9v11.4h-2.1l-5.2-8.4h0v8.4h-1.9V99.7z"/>
<path class="st0" d="M193.7,107.3c0,0.4,0.1,0.8,0.2,1.1c0.1,0.3,0.4,0.6,0.6,0.8s0.6,0.3,0.9,0.4s0.7,0.1,1.1,0.1
	c0.4,0,0.8,0,1.1-0.2s0.6-0.2,0.8-0.4s0.3-0.3,0.4-0.6s0.1-0.4,0.1-0.6c0-0.4-0.1-0.8-0.3-1s-0.4-0.4-0.6-0.4
	c-0.4-0.1-0.9-0.3-1.4-0.4c-0.5-0.1-1.2-0.3-2-0.5c-0.5-0.1-0.9-0.3-1.2-0.5s-0.6-0.4-0.8-0.7c-0.2-0.3-0.3-0.5-0.4-0.8
	s-0.1-0.6-0.1-0.9c0-0.6,0.1-1.1,0.4-1.5c0.2-0.4,0.6-0.8,1-1c0.4-0.3,0.8-0.5,1.3-0.6c0.5-0.1,1-0.2,1.5-0.2c0.6,0,1.2,0.1,1.7,0.2
	c0.5,0.2,1,0.4,1.4,0.7c0.4,0.3,0.7,0.7,1,1.1s0.4,1,0.4,1.6h-2c-0.1-0.7-0.3-1.3-0.8-1.6c-0.4-0.3-1-0.5-1.7-0.5
	c-0.2,0-0.5,0-0.7,0.1s-0.5,0.1-0.7,0.2c-0.2,0.1-0.4,0.3-0.5,0.5c-0.1,0.2-0.2,0.4-0.2,0.7c0,0.4,0.1,0.7,0.4,1s0.6,0.4,1,0.5
	c0,0,0.2,0.1,0.5,0.1c0.3,0.1,0.6,0.2,1,0.3c0.4,0.1,0.7,0.2,1.1,0.3s0.6,0.2,0.7,0.2c0.4,0.1,0.7,0.3,1,0.5
	c0.3,0.2,0.5,0.4,0.7,0.7s0.3,0.5,0.4,0.8s0.1,0.6,0.1,0.9c0,0.6-0.1,1.2-0.4,1.6c-0.3,0.5-0.6,0.8-1,1.1c-0.4,0.3-0.9,0.5-1.5,0.6
	c-0.5,0.1-1.1,0.2-1.7,0.2c-0.7,0-1.3-0.1-1.8-0.2s-1.1-0.4-1.5-0.7c-0.4-0.3-0.8-0.8-1-1.3c-0.3-0.5-0.4-1.1-0.4-1.8H193.7z"/>
<path class="st0" d="M205.7,106.6l-4.3-6.9h2.3l3,5.1l3-5.1h2.2l-4.3,6.9v4.5h-2V106.6z"/>
<path class="st0" d="M213.1,99.7h2v9.7h5.8v1.7h-7.8V99.7z"/>
<path class="st0" d="M219.5,99.7h2.1l2.9,9h0l2.9-9h2l-3.9,11.4h-2.2L219.5,99.7z"/>
<path class="st0" d="M232.8,99.7h2.1l4.4,11.4h-2.1l-1.1-3h-4.6l-1.1,3h-2.1L232.8,99.7z M232.1,106.5h3.5l-1.7-4.9h0L232.1,106.5z"
	/>
<path class="st0" d="M240.3,99.7h2.1l5.2,8.4h0v-8.4h1.9v11.4h-2.1l-5.2-8.4h0v8.4h-1.9V99.7z"/>
<path class="st0" d="M252,99.7h2v11.4h-2V99.7z"/>
<path class="st0" d="M259.5,99.7h2.1l4.4,11.4h-2.1l-1.1-3h-4.6l-1.1,3h-2.1L259.5,99.7z M258.8,106.5h3.5l-1.7-4.9h0L258.8,106.5z"
	/>
<line class="st1" x1="137.2" y1="6.1" x2="137.2" y2="113.4"/>
<path class="st0" d="M3.2,6H8L12,29.3h0.1L16,6h5l4,23.4h0.1L29.1,6h4.7l-6,30h-5.5l-3.9-22.6h-0.1L14.5,36H9L3.2,6z"/>
<path class="st0" d="M36.6,6h4.8v12h8.8V6H55v30h-4.8V22.1h-8.8V36h-4.8V6z"/>
<path class="st0" d="M59.9,6h16.2v4H64.7v8.3h10.8v4H64.7V32h11.8v4H59.9V6z"/>
<path class="st0" d="M80.1,6h10.6c4.2,0,7.6,2.1,7.6,7.7c0,3.9-1.7,6.8-5,7.4v0.1c3,0.3,4.5,1.9,4.7,6.1c0,1.9,0.1,4.3,0.2,6.1
	c0.1,1.5,0.8,2.2,1.4,2.6h-5.4c-0.5-0.5-0.7-1.5-0.8-2.6c-0.2-1.8-0.1-3.5-0.2-5.7c-0.1-3.3-1.1-4.7-4.4-4.7h-3.9v13h-4.8V6z
	 M88.7,19.4c3.1,0,4.8-1.8,4.8-4.9c0-3.2-1.4-4.9-4.5-4.9h-4.1v9.7H88.7z"/>
<path class="st0" d="M102.7,6h16.2v4h-11.4v8.3h10.8v4h-10.8V32h11.8v4h-16.6V6z"/>
<path class="st0" d="M30.1,97.8v0.9c0,7.8-3.2,15.5-13.4,15.5c-10.9,0-14.3-7-14.3-22.5c0-15.5,3.4-22.5,14.4-22.5
	c12.3,0,13.1,9.1,13.1,13.6v0.8h-6.9v-0.7c0-4-1.2-8.6-6.2-8.4c-5.1,0-7.4,3.2-7.4,17.1s2.3,17.5,7.4,17.5c5.8,0,6.4-6.4,6.4-10.4
	v-0.7H30.1z"/>
<path class="st0" d="M43.1,70H52l11.4,43.4h-7.2l-2.7-10.6H40.8L38,113.4h-7.2L43.1,70z M52.4,97.2l-5-21.4h-0.1l-5.2,21.4H52.4z"/>
<path class="st0" d="M66.4,70h15.3c6.1,0,11,3,11,11.2c0,5.6-2.5,9.9-7.2,10.6V92c4.3,0.4,6.6,2.8,6.8,8.9c0.1,2.8,0.1,6.2,0.2,8.8
	c0.1,2.1,1.2,3.2,2.1,3.8h-7.8c-0.7-0.8-1-2.1-1.2-3.8c-0.2-2.6-0.2-5-0.3-8.2c-0.1-4.7-1.6-6.8-6.3-6.8h-5.6v18.8h-6.9V70z
	 M78.9,89.3c4.4,0,6.9-2.7,6.9-7c0-4.6-2-7-6.6-7h-5.9v14.1H78.9z"/>
<path class="st0" d="M99.1,70h23.4v5.8H106v12h15.6v5.8H106v13.9h17v5.8H99.1V70z"/>
<path class="st0" d="M4.5,42.4h3.4l2.8,16.3h0.1l2.8-16.3H17l2.8,16.4h0.1l2.7-16.4h3.3l-4.2,21h-3.9l-2.7-15.8h-0.1l-2.7,15.8H8.5
	L4.5,42.4z"/>
<path class="st0" d="M27.9,42.4h11.4v2.8h-8V51h7.5v2.8h-7.5v6.7h8.2v2.8H27.9V42.4z"/>
<path class="st0" d="M48.6,52.9c0-7.5,2.1-10.9,6.9-10.9s6.9,3.4,6.9,10.9s-2.1,10.9-6.9,10.9S48.6,60.4,48.6,52.9z M59.1,52.8
	c0-7.1-1.6-8.3-3.6-8.3c-2,0-3.6,1.2-3.6,8.3c0,7.2,1.6,8.5,3.6,8.5C57.5,61.2,59.1,60,59.1,52.8z"/>
<path class="st0" d="M65.4,42.4h11.2v2.8h-7.9V51h7.4v2.8h-7.4v9.5h-3.4V42.4z"/>
<path class="st0" d="M79.1,42.4h11.2v2.8h-7.9V51h7.4v2.8h-7.4v9.5h-3.4V42.4z"/>
<path class="st0" d="M92.7,42.4h11.4v2.8h-8V51h7.5v2.8h-7.5v6.7h8.2v2.8H92.7V42.4z"/>
<path class="st0" d="M106.9,42.4h7.4c2.9,0,5.3,1.5,5.3,5.4c0,2.7-1.2,4.8-3.5,5.2V53c2.1,0.2,3.2,1.4,3.3,4.3c0,1.4,0.1,3,0.1,4.3
	c0.1,1,0.6,1.5,1,1.8h-3.8c-0.3-0.4-0.5-1-0.6-1.9c-0.1-1.3-0.1-2.4-0.1-4c-0.1-2.3-0.8-3.3-3.1-3.3h-2.7v9.1h-3.4V42.4z
	 M112.9,51.7c2.1,0,3.4-1.3,3.4-3.4c0-2.2-1-3.4-3.2-3.4h-2.9v6.8H112.9z"/>
</svg>
