<?xml version="1.0" encoding="utf-8"?>
<!-- Generator: Adobe Illustrator 22.0.1, SVG Export Plug-In . SVG Version: 6.00 Build 0)  -->
<svg version="1.1" id="Layer_1" xmlns="http://www.w3.org/2000/svg" xmlns:xlink="http://www.w3.org/1999/xlink" x="0px" y="0px"
	 viewBox="0 0 40 40" style="enable-background:new 0 0 40 40;" xml:space="preserve">
<style type="text/css">
	.st0{fill:none;stroke:#3F70B1;stroke-width:1.5;stroke-miterlimit:10;}
	.st1{fill:none;stroke:#3F70B1;stroke-miterlimit:10;}
	.st2{fill:none;stroke:#3F70B1;stroke-width:1.3;stroke-miterlimit:10;}
</style>
<circle class="st0" cx="19.9" cy="19.4" r="18"/>
<path class="st0" d="M28.9,28.9H11.5c-0.4,0-0.8-0.3-0.8-0.8V13.5c0-0.4,0.3-0.8,0.8-0.8h17.4c0.4,0,0.8,0.3,0.8,0.8v14.7
	C29.6,28.6,29.3,28.9,28.9,28.9z"/>
<g>
	<path class="st1" d="M19.9,17.8c0.5-1,1.6-1.6,2.8-1.6c1.7,0,3.1,1.5,3.1,3.1c0,2.3-5.9,6.8-5.9,6.8l0,0c0,0-5.9-4.5-5.9-6.8
		c0-1.6,1.4-3.1,3.1-3.1C18.3,16.2,19.4,16.9,19.9,17.8L19.9,17.8z"/>
</g>
<path class="st2" d="M20.2,12.7c-3.5-1.4-8.8-3.3-7.7-4.3s3.8-0.1,6.1,2.2C19.2,11.3,19.8,12,20.2,12.7"/>
<path class="st2" d="M20.5,12.7c0.4-0.6,0.9-1.3,1.6-1.9c2.3-2.3,5-3.3,6.1-2.2S24.1,11.4,20.5,12.7"/>
</svg>
