<?xml version="1.0" encoding="utf-8"?>
<!-- Generator: Adobe Illustrator 22.0.1, SVG Export Plug-In . SVG Version: 6.00 Build 0)  -->
<svg version="1.1" id="Layer_1" xmlns="http://www.w3.org/2000/svg" xmlns:xlink="http://www.w3.org/1999/xlink" x="0px" y="0px"
	 viewBox="0 0 40 40" style="enable-background:new 0 0 40 40;" xml:space="preserve">
<style type="text/css">
	.st0{fill:none;stroke:#3F70B1;stroke-width:1.5;stroke-miterlimit:10;}
	.st1{fill:#3F70B1;}
	.st2{fill:none;stroke:#3F70B1;stroke-miterlimit:10;}
</style>
<circle class="st0" cx="20.4" cy="19.6" r="18"/>
<g>
	<g>
		<path class="st1" d="M20.3,5.5c-0.3,1-0.6,2.1-0.7,3.1c-0.1,1,0.2,2.1,0.4,3c0.2,0.6,1.6,0.2,1.4-0.4c-0.3-1-0.5-2-0.4-3
			c0.1-1,0.4-1.9,0.7-2.9C21.9,4.7,20.4,4.9,20.3,5.5L20.3,5.5z"/>
	</g>
</g>
<path class="st2" d="M18.6,16.7c0.6-0.6,1.5-0.8,2.4-0.5c1.2,0.4,1.9,1.8,1.5,2.9c-0.5,1.6-5.8,3.4-5.8,3.4l0,0c0,0-3.1-4.6-2.6-6.2
	c0.4-1.2,1.7-1.9,2.9-1.5C17.8,15.1,18.4,15.9,18.6,16.7L18.6,16.7z"/>
<path class="st0" d="M31.7,21c0,4.3-2.4,7.9-6,9.8c-1.6,0.8-3.4,0-5.3,0c-1.9,0-3.8,0.8-5.3,0c-3.5-1.9-5.8-5.7-5.8-9.9
	c0-3.8,1.9-7.1,4.8-9.1c1.8-1.3,4.1,0.1,6.5,0.1c2.5,0,4.8-1.3,6.6,0.1C30,13.9,31.8,17.2,31.7,21z"/>
<g>
	<g>
		<path class="st1" d="M27.2,6.1c-1.4,1.9-3.2,4.3-5.8,3.7c0.1,0.1,0.2,0.2,0.3,0.3c0.8-2.8,3.6-3.3,6.1-3.6C28.4,6.3,29,5.6,28,5.7
			c-3.1,0.4-6.7,1.1-7.8,4.5c-0.1,0.2,0.1,0.2,0.3,0.3c3.6,0.8,6.1-1.8,8.1-4.4C28.9,5.6,27.5,5.7,27.2,6.1z"/>
	</g>
</g>
</svg>
