<?xml version="1.0" encoding="utf-8"?>
<!-- Generator: Adobe Illustrator 20.0.0, SVG Export Plug-In . SVG Version: 6.00 Build 0)  -->
<svg version="1.1" id="Layer_1" xmlns="http://www.w3.org/2000/svg" xmlns:xlink="http://www.w3.org/1999/xlink" x="0px" y="0px"
	 viewBox="0 0 40 40" style="enable-background:new 0 0 40 40;" xml:space="preserve">
<style type="text/css">
	.st0{fill:none;stroke:#154D78;stroke-miterlimit:10;}
	.st1{fill:none;stroke:#154D78;stroke-width:0.75;stroke-miterlimit:10;}
</style>
<g>
	<path class="st0" d="M29.3,33.4H10.6c-0.4,0-0.8-0.3-0.8-0.8V16.9c0-0.4,0.3-0.8,0.8-0.8h18.7c0.4,0,0.8,0.3,0.8,0.8v15.8
		C30,33.1,29.7,33.4,29.3,33.4z"/>
	<path class="st0" d="M19.9,16.1c-0.5-0.8-1.1-1.5-1.8-2.3c-2.4-2.4-5.3-3.5-6.5-2.4S16.2,14.6,19.9,16.1"/>
	<path class="st0" d="M20.3,16.1c0.4-0.7,1-1.4,1.7-2c2.4-2.4,5.3-3.5,6.5-2.4S24.1,14.6,20.3,16.1"/>
	<path class="st1" d="M20,15.4c-2.8-2.9-7.1-7.1-5.6-7.7s3.7,1.6,4.9,4.9C19.7,13.6,19.9,14.6,20,15.4"/>
	<path class="st1" d="M20.4,15.5c0.1-0.8,0.2-1.7,0.5-2.6c1-3.3,3-5.7,4.5-5.2C26.9,8.1,23,12.4,20.4,15.5"/>
	<path class="st1" d="M20.4,15.4c-0.4-0.7-0.8-1.5-1-2.4c-1.1-3.3-0.7-6.4,0.8-6.8S20.8,11.4,20.4,15.4"/>
	<line class="st0" x1="19.9" y1="16.1" x2="19.9" y2="33.4"/>
	<line class="st0" x1="30" y1="21.4" x2="10.1" y2="21.4"/>
</g>
</svg>
