<?xml version="1.0" encoding="utf-8"?>
<!-- Generator: Adobe Illustrator 20.0.0, SVG Export Plug-In . SVG Version: 6.00 Build 0)  -->
<svg version="1.1" id="Layer_1" xmlns="http://www.w3.org/2000/svg" xmlns:xlink="http://www.w3.org/1999/xlink" x="0px" y="0px"
	 viewBox="0 0 40 40" style="enable-background:new 0 0 40 40;" xml:space="preserve">
<style type="text/css">
	.st0{fill:#FFFFFF;}
	.st1{enable-background:new    ;}
</style>
<g>
	<g>
		<path class="st0" d="M5.5,2.9c10.3,0,20.5,0,30.8,0c2,0,2.7-2.5,0.3-2.5c-10.3,0-20.5,0-30.8,0C3.8,0.4,3.1,2.9,5.5,2.9L5.5,2.9z"
			/>
	</g>
</g>
<g>
	<g>
		<path class="st0" d="M5.5,22.2c10.3,0,20.5,0,30.8,0c2,0,2.7-2.5,0.3-2.5c-10.3,0-20.5,0-30.8,0C3.8,19.7,3.1,22.2,5.5,22.2
			L5.5,22.2z"/>
	</g>
</g>
<g>
	<g>
		<path class="st0" d="M5.5,12.5c10.3,0,20.5,0,30.8,0c2,0,2.7-2.5,0.3-2.5C26.3,10,16,10,5.8,10C3.8,10,3.1,12.5,5.5,12.5L5.5,12.5
			z"/>
	</g>
</g>
<g class="st1">
	<path class="st0" d="M3.5,28.6h2.7l1.9,7.9h0l1.9-7.9h2.6v10.7H11v-8.9h0l-2.2,8.9H7.4l-2.2-8.9h0v8.9H3.5V28.6z"/>
	<path class="st0" d="M14.4,28.6h5.8v1.4h-4.1v3h3.8v1.4h-3.8v3.4h4.2v1.4h-5.9V28.6z"/>
	<path class="st0" d="M21.6,28.6h2.1l3.1,8h0v-8h1.6v10.7h-2.1l-3.1-8.2h0v8.2h-1.6V28.6z"/>
	<path class="st0" d="M31.8,28.6v7.7c0,1.4,0.5,2,1.6,2c1,0,1.6-0.6,1.6-2v-7.7h1.7v7.5c0,2.5-1.2,3.4-3.3,3.4
		c-2.1,0-3.3-0.9-3.3-3.4v-7.5H31.8z"/>
</g>
</svg>
