<?xml version="1.0" encoding="utf-8"?>
<!-- Generator: Adobe Illustrator 20.1.0, SVG Export Plug-In . SVG Version: 6.00 Build 0)  -->
<svg version="1.1" id="Layer_1" xmlns="http://www.w3.org/2000/svg" xmlns:xlink="http://www.w3.org/1999/xlink" x="0px" y="0px"
	 viewBox="0 0 40 40" style="enable-background:new 0 0 40 40;" xml:space="preserve">
<style type="text/css">
	.st0{fill:#FFFFFF;}
	.st1{fill:#FFFFFF;stroke:#6E6F72;stroke-miterlimit:10;}
	.st2{fill:#6E6F72;}
</style>
<circle class="st0" cx="20" cy="20" r="18"/>
<circle class="st1" cx="16.7" cy="16.8" r="8.5"/>
<g>
	<g>
		<path class="st2" d="M22.1,23.7c2.1,2.1,4.3,4.3,6.4,6.4c0.7,0.7,2.7-0.2,2-1c-2.1-2.1-4.3-4.3-6.4-6.4
			C23.4,22.1,21.3,23,22.1,23.7L22.1,23.7z"/>
	</g>
</g>
<g>
	<g>
		<path class="st2" d="M23.2,24.7c0.6-0.6,1.2-1.2,1.8-1.8c0.2-0.2,0.1-0.6-0.2-0.7c-0.4-0.1-0.8,0-1,0.3c-0.6,0.6-1.2,1.2-1.8,1.8
			c-0.2,0.2-0.1,0.6,0.2,0.7C22.5,25.1,22.9,24.9,23.2,24.7L23.2,24.7z"/>
	</g>
</g>
</svg>
