<?xml version="1.0" encoding="utf-8"?>
<!-- Generator: Adobe Illustrator 22.0.1, SVG Export Plug-In . SVG Version: 6.00 Build 0)  -->
<svg version="1.1" id="Layer_1" xmlns="http://www.w3.org/2000/svg" xmlns:xlink="http://www.w3.org/1999/xlink" x="0px" y="0px"
	 viewBox="0 0 40 40" style="enable-background:new 0 0 40 40;" xml:space="preserve">
<style type="text/css">
	.st0{fill:#4070B0;}
</style>
<path class="st0" d="M17,23.7c2.5-1.3,4.9-2.6,7.4-3.9c-2.5-1.3-5-2.6-7.4-3.9V23.7z"/>
<path class="st0" d="M20,3.5C10.9,3.5,3.5,10.9,3.5,20S10.9,36.5,20,36.5S36.5,29.1,36.5,20S29.1,3.5,20,3.5L20,3.5z M31.3,25.5
	c-0.3,1.2-1.3,2.2-2.5,2.3c-2.9,0.3-5.8,0.3-8.7,0.3s-5.9,0-8.8-0.3c-1.3-0.1-2.3-1-2.6-2.3c-0.4-1.8-0.4-3.7-0.4-5.5s0-3.8,0.4-5.5
	c0.3-1.2,1.3-2.2,2.5-2.3c2.9-0.3,5.8-0.3,8.7-0.3s5.9,0,8.7,0.3c1.2,0.1,2.2,1.1,2.5,2.3c0.4,1.8,0.4,3.7,0.4,5.5
	C31.7,21.8,31.7,23.8,31.3,25.5L31.3,25.5z"/>
</svg>
