<?xml version="1.0" encoding="utf-8"?>
<!-- Generator: Adobe Illustrator 20.0.0, SVG Export Plug-In . SVG Version: 6.00 Build 0)  -->
<svg version="1.1" id="Layer_1" xmlns="http://www.w3.org/2000/svg" xmlns:xlink="http://www.w3.org/1999/xlink" x="0px" y="0px"
	 viewBox="0 0 156.3 65.5" style="enable-background:new 0 0 156.3 65.5;" xml:space="preserve">
<style type="text/css">
	.st0{fill:#A3B1DA;}
	.st1{fill:#FFFFFF;}
	.st2{fill:#005CAB;}
</style>
<g>
	<g id="symbol_4_">
		<g>
			<g>
				<path class="st0" d="M25,48.1h106.3c-17.2-2.8-35-4.3-53.1-4.3S42.1,45.2,25,48.1z"/>
				<g>
					<path class="st1" d="M149.7,0.5C127,5.7,102.9,8.4,78.2,8.4S29.4,5.7,6.6,0.5L4.4,0L3.8,2.1C1.3,9.8,0,17.9,0,26
						C0,34.2,1.2,42.2,3.8,50l0.7,2.1l2.2-0.5c22.8-5.2,46.8-7.9,71.6-7.9s48.8,2.7,71.6,7.9l2.2,0.5l0.7-2.1
						c2.5-7.7,3.8-15.8,3.8-23.9c0-8.2-1.2-16.2-3.8-23.9L151.9,0L149.7,0.5z"/>
					<path class="st2" d="M150.2,49.3c2.4-7.3,3.6-15.1,3.6-23.2s-1.3-15.9-3.6-23.2c-22.3,5.1-46.6,8-72.1,8
						C52.6,10.8,28.3,8,6,2.9C3.6,10.2,2.4,18,2.4,26.1S3.7,42,6,49.3c22.3-5.1,46.6-8,72.2-8C103.6,41.4,128,44.2,150.2,49.3z"/>
				</g>
			</g>
			<path class="st1" d="M140.9,21.1c-0.1,0-0.2,0-0.4,0h-0.1v-0.5h0.1c0.2,0,0.4,0,0.4,0s0.1,0.1,0.1,0.1c0,0.1,0.1,0.1,0.1,0.1
				s0,0.1-0.1,0.1C141,21,140.9,21.1,140.9,21.1z M141.2,21.6c-0.1-0.1-0.1-0.1-0.1-0.1c0,0-0.1-0.1-0.1-0.1c0.1,0,0.3-0.1,0.4-0.1
				c0.1-0.1,0.1-0.2,0.1-0.4c0-0.1,0-0.2-0.1-0.3c-0.1-0.1-0.1-0.1-0.1-0.1c-0.1-0.1-0.1-0.1-0.3-0.1c-0.1,0-0.2,0-0.6,0H140v1.8
				h0.4v-0.7h0.1c0.1,0,0.2,0,0.3,0.1c0.1,0.1,0.1,0.1,0.3,0.4l0.1,0.3h0.4l-0.2-0.4C141.3,21.7,141.3,21.6,141.2,21.6z M142,22
				c-0.1,0.2-0.3,0.4-0.5,0.5c-0.2,0.1-0.4,0.2-0.7,0.2c-0.2,0-0.5-0.1-0.7-0.2c-0.2-0.1-0.4-0.3-0.5-0.5c-0.1-0.2-0.2-0.4-0.2-0.7
				c0-0.2,0.1-0.5,0.2-0.7c0.1-0.2,0.3-0.4,0.5-0.5c0.2-0.1,0.4-0.2,0.7-0.2c0.2,0,0.5,0.1,0.7,0.2c0.2,0.1,0.4,0.3,0.5,0.5
				c0.1,0.2,0.2,0.4,0.2,0.7C142.1,21.5,142.1,21.8,142,22z M142.3,20.4c-0.1-0.3-0.4-0.5-0.7-0.7c-0.3-0.1-0.6-0.2-0.9-0.2
				c-0.3,0-0.6,0.1-0.9,0.2c-0.3,0.1-0.5,0.4-0.7,0.7c-0.1,0.3-0.2,0.6-0.2,0.9c0,0.3,0.1,0.6,0.2,0.9c0.1,0.3,0.4,0.5,0.7,0.7
				c0.3,0.1,0.6,0.2,0.9,0.2c0.3,0,0.6-0.1,0.9-0.2c0.3-0.1,0.5-0.4,0.7-0.7c0.1-0.3,0.2-0.6,0.2-0.9
				C142.5,21,142.4,20.7,142.3,20.4z M138.4,25.4c0-1.1-0.1-2.2-0.9-3c-0.7-0.8-2-1.2-3.1-1.2c-1.7,0-2.8,0.6-3.7,2v-6.4h-4.9v2.1
				h1.7v13.6h-1.7v2.1h6.4v-2.1h-1.6v-4.6c0-0.9,0-1.9,0.4-2.7c0.4-1,1-1.7,2.2-1.7c0.9,0,1.7,0.7,1.8,1.7c0.1,0.5,0.1,1,0.1,1.4
				v5.8h-1.6v2.1h6.4v-2.1h-1.7V25.4z M121.8,32.5c-0.2-0.1-0.4-0.6-0.4-0.8v-8.1h3.3v-2.1h-3.3v-3.3l-3.3,1.1v2.2h-2v2.1h2V30
				c0,0.6,0,1.7,0.1,2.2c0.2,1.1,0.9,1.9,2,2.2c0.6,0.1,0.9,0.2,1.4,0.2c0.3,0,1.1-0.1,1.4-0.2c1.6-0.5,2.1-2,2.1-3.5v-0.9h-2
				C123.3,31,123.3,33.1,121.8,32.5z M114.8,16.7h-4.9v2.1h1.7v13.6h-1.7v2.1h6.4v-2.1h-1.6L114.8,16.7L114.8,16.7z M101.5,32.6
				c-1,0-1.7-0.8-1.7-1.8c0-2,1.5-2.4,3.2-2.4h1.5C104.4,30.4,103.8,32.6,101.5,32.6z M107.5,26.6c0-0.6,0-1.1-0.1-1.7
				c-0.1-0.5-0.1-0.8-0.3-1.2c-0.9-2-2.7-2.5-4.8-2.5c-2.8,0-5.2,1.1-5.3,4.3h3.2c0-1.4,0.7-2.3,2.1-2.3c2,0,2.2,2,2.1,3.5
				c-0.6,0-1.2-0.1-1.7-0.1c-0.6,0-1.3,0.1-1.9,0.1c-0.9,0-2.3,0.5-3,1.1c-0.8,0.7-1.2,1.8-1.2,2.9c0,0.4,0,0.8,0.3,1.7
				c0.3,1.4,2,2.4,3.8,2.4c1.7,0,3.3-0.7,4-2.4v2.1h4.5v-2h-1.8V26.6z M87,26.7c0.1-1.7,0.8-3.5,2.8-3.5c1.9,0,2.5,2.1,2.5,3.5H87z
				 M94.1,22.9c-1.2-1.2-2.8-1.7-4.6-1.7c-3.9,0-5.9,3.1-5.9,6.7c0,1.7,0.4,3.3,1.4,4.6c0.6,0.7,1.1,1.2,2,1.7
				c0.7,0.4,1.9,0.6,2.7,0.6c2.6,0,5.4-1.4,5.6-4.3h-3c-0.2,1.2-1.1,2.1-2.4,2.1c-2.2,0-3-2.2-3-4h8.6c0-0.1,0-0.1,0-0.2
				c0.1-0.4,0-0.7,0-1.1C95.5,25.8,95.2,24,94.1,22.9z M76,19.2h2.1v5.3H71v-5.3h2.1v-2.2h-7.4v2.2h2v13h-2v2.2h7.4v-2.2H71v-5.6
				h7.1v5.6H76v2.2h7.4v-2.2h-2v-13h2v-2.2H76V19.2z M59,26.1c-0.2-0.1-0.5-0.2-0.7-0.4c-0.3-0.3-0.4-0.6-0.4-1c0-1.2,0.9-1.7,2-1.7
				c1.6,0,2.1,1.2,2.2,2.5h2.4v-4.2h-2.3v1.1c-0.7-0.9-2-1.4-3-1.4c-1.5,0-3.1,0.7-3.6,1.4c-0.4,0.5-0.9,1.2-0.9,2.3
				c0,1.4,0.4,2.5,1.7,3.4c1.4,0.9,3.2,0.7,4.6,1.4c0.5,0.2,0.7,0.8,0.7,1.3c0,0.9-0.9,1.6-1.8,1.6c-1.7,0-2.5-1.1-2.5-2.7h-2.6v4.5
				H57V33c0.7,1,2,1.6,3.2,1.6c1.8,0,3.3-0.8,3.8-1.6c0.5-0.7,0.8-1.9,0.8-2.6c0-1-0.2-1.8-0.9-2.6C63,26.7,60.4,26.5,59,26.1z
				 M45.9,32.5c-2.4,0-2.8-2.7-2.8-4.6c0-1.9,0.4-4.6,2.8-4.6c0.9,0,1.8,0.7,2.3,1.4c0.5,0.9,0.6,2,0.6,3
				C48.9,29.8,48.4,32.5,45.9,32.5z M52.1,16.7h-4.9v2.1h1.7v4.3c-0.9-1.3-2.2-2-3.8-2c-3.8,0-5.3,3.2-5.3,6.5c0,2.6,0.5,4,0.9,4.7
				c0.8,1.3,2.2,2.3,4.3,2.4c1.6-0.1,3-0.7,4-2.4v2.1h4.7v-2.1h-1.7L52.1,16.7L52.1,16.7z M37.7,21.5h-5v2.1h1.7v8.8h-1.7v2.1h6.5
				v-2.1h-1.5V21.5z M37.7,16.6h-3.2v3h3.3L37.7,16.6L37.7,16.6z M24.9,25l5.3-5.8h1.3v-2.2h-6.7v2.2h1.7L21.3,25v-5.8h2v-2.2H16
				v2.2h2v13h-2v2.2h7.3v-2.2h-2v-6.9l5.3,6.9h-1.7v2.2h7v-2.2h-1.4L24.9,25z"/>
		</g>
	</g>
	<g>
		<path class="st2" d="M39.6,55.1c0,0-0.7-0.4-1.6-0.4c-0.9,0-1.2,0.8-1.2,1.6v1.6H38v1.2h-1.2v6.2h-1.3v-6.2h-1.1v-1.2h1.2v-1.6
			c0-1.5,0.7-2.6,2.2-2.6c0.4,0,1.3,0.1,2,0.7L39.6,55.1z"/>
		<path class="st2" d="M44.2,59.5c0,0-0.4-0.7-1.3-0.7c-1,0-1.7,1-1.7,2v4.6h-1.2V58h0.7c0.1,0,0.1,0.1,0.1,0.1l0.4,0.7
			c0.4-0.7,1.4-1.1,2.1-1.1c0.7,0,1.2,0.4,1.7,1L44.2,59.5z"/>
		<path class="st2" d="M48.8,65.5c-2.2,0-3.5-1.8-3.5-3.9s1.3-3.9,3.5-3.9c2.2,0,3.5,1.8,3.5,3.9S51,65.5,48.8,65.5z M48.8,58.9
			c-1.5,0-2.2,1.4-2.2,2.7s0.7,2.7,2.2,2.7c1.5,0,2.2-1.3,2.2-2.7S50.4,58.9,48.8,58.9z"/>
		<path class="st2" d="M61.3,65.3v-4.9c0-0.7-0.1-1.5-1.1-1.5c-0.9,0-1.4,0.9-1.4,1.7v4.8h-1.2v-4.9c0-0.8-0.1-1.5-1.1-1.5
			c-1,0-1.4,1-1.4,2v4.6h-1.3V58h0.7c0.1,0,0.1,0.1,0.1,0.1l0.4,0.7c0.4-0.7,1-1.1,1.7-1.1c0.7,0,1.4,0.4,1.7,1c0.5-0.7,1.1-1,1.9-1
			c1.7,0,2.1,1.2,2.1,2.7v4.8L61.3,65.3L61.3,65.3z"/>
		<path class="st2" d="M68.8,57.5v7.8h-1.3V54l6.9,7.9v-7.7h1.3v11.2L68.8,57.5z"/>
		<path class="st2" d="M78.8,61.9c0.1,1.3,0.7,2.6,2.3,2.6c1.2,0,2-0.5,2-0.5l0.2,0.7c-0.7,0.5-1.4,0.9-2.3,0.9
			c-2.3,0-3.4-1.7-3.4-3.9c0-2.1,1.1-3.9,3.4-3.9c2.4,0,3.2,2,3.2,3.9v0.2L78.8,61.9L78.8,61.9z M80.9,58.8c-1.2,0-2.1,0.9-2.1,2.1
			h4C82.9,59.9,82.1,58.8,80.9,58.8z"/>
		<path class="st2" d="M92.8,65.3v-4.9c0-0.7-0.1-1.5-1.1-1.5c-0.9,0-1.4,0.9-1.4,1.7v4.8h-1.3v-4.9c0-0.8-0.1-1.5-1.1-1.5
			c-1,0-1.4,1-1.4,2v4.6h-1.3V58H86c0.1,0,0.1,0.1,0.1,0.1l0.4,0.7c0.4-0.7,1-1.1,1.7-1.1c0.7,0,1.4,0.4,1.7,1c0.5-0.7,1.1-1,1.9-1
			c1.7,0,2.1,1.2,2.1,2.7v4.8L92.8,65.3L92.8,65.3z"/>
		<path class="st2" d="M99,65.5c-2.2,0-3.5-1.8-3.5-3.9s1.3-3.9,3.5-3.9c2.2,0,3.5,1.8,3.5,3.9S101.1,65.5,99,65.5z M99,58.9
			c-1.5,0-2.2,1.4-2.2,2.7s0.7,2.7,2.2,2.7c1.5,0,2.2-1.3,2.2-2.7C101.2,60.2,100.6,58.9,99,58.9z"/>
		<path class="st2" d="M108.9,65.3c-0.1,0-0.1-0.1-0.1-0.1l-0.4-1c-0.5,0.8-1.4,1.4-2.4,1.4c-1.6,0-2.2-1.2-2.2-2.7V58h1.2v4.7
			c0,0.9,0.2,1.7,1.3,1.7c1.3,0,2-0.9,2-2v-4.6h1.3v7.4L108.9,65.3L108.9,65.3z"/>
		<path class="st2" d="M115.9,59.5c0,0-0.4-0.7-1.3-0.7c-1,0-1.7,1-1.7,2v4.6h-1.2V58h0.7c0.1,0,0.1,0.1,0.1,0.1l0.4,0.7
			c0.4-0.7,1.4-1.1,2.1-1.1c0.7,0,1.2,0.4,1.7,1L115.9,59.5z"/>
		<path class="st2" d="M119.6,65.5c-1,0-2.2-0.7-2.7-1.5l0.6-0.4c0.4,0.6,1.4,0.9,2,0.9c0.7,0,1.2-0.4,1.2-1.1
			c0-1.7-3.5-1.1-3.5-3.5c0-1.2,1.1-2,2.2-2c0.9,0,1.7,0.4,2.3,0.9l-0.2,0.7c0,0-0.7-0.5-2-0.5c-0.7,0-1.2,0.4-1.2,1
			c0,1.5,3.5,1,3.5,3.5C122,64.6,120.8,65.5,119.6,65.5z"/>
	</g>
</g>
</svg>
