<?xml version="1.0" encoding="utf-8"?>
<!-- Generator: Adobe Illustrator 21.0.0, SVG Export Plug-In . SVG Version: 6.00 Build 0)  -->
<svg version="1.1" id="Layer_1" xmlns="http://www.w3.org/2000/svg" xmlns:xlink="http://www.w3.org/1999/xlink" x="0px" y="0px"
	 viewBox="0 0 452.9 50" style="enable-background:new 0 0 452.9 50;" xml:space="preserve">
<style type="text/css">
	.st0{fill:#FFFFFF;}
	.st1{fill:#EB0029;}
</style>
<polygon class="st0" points="18.4,0 18.4,1 22,1 22,22.1 21.9,22.1 8.9,0 0,0 0,1 3.6,1 3.6,29.4 0,29.4 0,30.5 8.4,30.5 8.4,29.4 
	4.9,29.4 4.9,2 5,2 22.1,31.2 23.3,31.2 23.3,1 26.8,1 26.8,0 "/>
<path class="st0" d="M42,24.8c-0.6,3-3.7,5.3-6.3,5.3c-5,0-5.6-3.7-5.6-8.2V20H43c0-5-3.6-8.1-8.2-8.1c-5.4,0-9,4.9-9,10.3
	c0,5.1,4.5,8.8,9.1,8.8c4,0,7.1-2,8-6.2C42.9,24.8,42,24.8,42,24.8z M30.2,18.8c0-1.1,0.2-2.2,0.5-3c0.1-0.3,1.3-2.9,4.1-2.9
	c2.3,0,4.2,1,4.2,4.3v1.6C39,18.8,30.2,18.8,30.2,18.8z"/>
<path class="st0" d="M74.3,29.4v1h-8.4v-1h2.6v-13c0-2.1-1.1-3.2-2.6-3.2c-2.8,0-5.1,4.1-5.1,6.6v9.6h2.4v1h-8.4v-1h2.4v-13
	c0-2.1-1.1-3.2-2.6-3.2c-2.8,0-5.1,4.1-5.1,7.5v8.6h2.6v1h-8.4v-1H46v-16h-2.3v-1h0.7c1.7,0,3.5,0,5.1-0.5v4.3h0.1
	c1.6-2.6,2.8-4.3,6.2-4.3c2.6,0,4.6,1.6,4.9,4.3h0.1c1.5-2.5,3.3-4.3,6.3-4.3c1.7,0,4.9,0.6,4.9,5.3v12.1h2.3V29.4z"/>
<path class="st0" d="M83.2,12c-4.8,0-8.8,4-8.8,9.5s4,9.6,8.8,9.6S92,27,92,21.5S88,12,83.2,12 M83.2,12.9c4.6,0,4.7,4.8,4.7,8.6
	s0,8.7-4.7,8.7c-4.6,0-4.7-4.8-4.7-8.7C78.5,17.7,78.5,12.9,83.2,12.9"/>
<path class="st0" d="M112.2,30.5h-1c-1.6,0-3.3,0.1-5,0.3v-3.7h-0.1c-1.2,2.5-3.7,4-6.6,4c-4.5,0-5.4-2.2-5.4-4.4V13.5h-2.5v-1h0.9
	c1.7,0,3.5-0.1,5.1-0.5v14.3c0,2.8,1.4,3.4,2.8,3.4c3.2,0,5.5-2.7,5.5-6V13.5h-2.6v-1h1c1.7,0,3.5-0.1,5.1-0.5v17.5h2.6v1H112.2z"/>
<path class="st0" d="M118.8,16.2L118.8,16.2c0.9-2.1,2.7-4.3,5.2-4.3c1.6,0,2.8,0.8,2.8,2.6c0,1.1-1.2,1.7-2.1,1.7
	c-0.8,0-1.8-0.9-1.8-1.8c0-0.4,0.2-0.8,0.2-1c0-0.3-0.3-0.3-0.4-0.3s-1.6,0.6-2.6,2.7c-0.6,1.3-1.1,3.1-1.1,4.9v8.7h3.5v1h-10.2v-1
	h3.1v-16h-3.1v-1h1.4c1.7,0,3.5-0.1,5.1-0.5V16.2z"/>
<path class="st0" d="M139.3,12.4v5.1h-1c-0.7-2.6-2.2-4.5-5-4.7c-3.7-0.1-4.3,2.8-4.3,3.3c0,1.3,0.4,2,7.4,3.4
	c3.5,0.7,4.7,2.3,4.7,5.2c0,3.9-3,6.2-6.6,6.2c-1.9,0-3.9-0.8-5.2-2.2l-1,1.6h-1v-6h1c0.9,3.3,3.1,5.7,6.5,5.7
	c2.1,0,4.4-1.6,4.4-3.9c0-1.8-2.5-2.6-6.3-3.6c-3-0.7-5.7-1.1-5.7-5.1c0-1.9,1.2-5.6,6.2-5.6c1.4,0,2.8,0.5,4.2,1.7l0.8-1.2h0.9
	V12.4z"/>
<path class="st0" d="M145.5,28.4h0.2c0.2,0,0.3,0,0.4,0c0.3-0.1,0.4-0.2,0.4-0.5c0-0.4-0.5-0.4-0.6-0.4c-0.4,0-0.4,0-0.4,0.4
	L145.5,28.4L145.5,28.4z M146,27.1c0.3,0,0.6,0,0.8,0.1c0.3,0.2,0.4,0.4,0.4,0.7c0,0.5-0.3,0.7-0.8,0.8c0.3,0.1,0.3,0.4,0.4,0.6
	l0.1,0.3c0.1,0.2,0.1,0.3,0.2,0.3c0.1,0,0.1,0,0.2-0.4l0.3,0.1c-0.1,0.4-0.2,1-0.7,1s-0.6-0.4-0.7-0.9c-0.1-0.5-0.2-0.7-0.5-0.7
	h-0.1v0.9c0,0.2,0.1,0.2,0.4,0.3v0.4c-0.3,0-0.5,0-0.7,0s-0.5,0-0.7,0v-0.4c0.2,0,0.3,0,0.3-0.1c0,0,0-0.1,0-0.3v-1.9
	c0-0.3,0-0.3-0.3-0.3v-0.4c0.4,0,0.6,0,0.7,0L146,27.1z M145.8,26.4c-1.4,0-2.4,1.1-2.4,2.4c0,1.4,1.1,2.4,2.4,2.4
	c1.4,0,2.4-1.1,2.4-2.4S147.2,26.4,145.8,26.4 M145.8,31.5c-1.4,0-2.7-1.1-2.7-2.7c0-1.5,1.2-2.7,2.7-2.7s2.7,1.2,2.7,2.7
	S147.3,31.5,145.8,31.5"/>
<path class="st0" d="M174.5,13.4c-0.1-2.9-1-5.3-4.3-5.3c-4.6,0-4.7,6.6-4.7,9.8c-0.1,3.3-0.2,10.6,4.7,10.6c3.2,0,3.9-2.6,4.2-5.2
	c0.1-0.5,0.1-1.1,0.2-1.6h2.7c-0.1,0.5-0.1,1-0.1,1.5c-0.2,2-0.3,3.4-1.4,5.1c-1.3,1.7-2.9,2.7-5.2,2.7c-7.4,0-7.7-7.2-7.7-12.9
	c0-5.4,0.8-12.3,7.7-12.3c4.6,0,7,3.4,6.8,7.7h-2.9V13.4z"/>
<path class="st0" d="M182.8,30.3h-2.5V6.1h2.5v8.2h0.1c1.2-1.5,2.5-2.4,4.4-2.4c2.7,0,4.4,1.4,4.4,4.6v13.8h-2.5V17.2
	c0-1.9-0.6-3.1-2.7-3.1c-0.9,0-1.8,0.4-2.5,1c-1,0.9-1.2,2-1.2,3.3V30.3z"/>
<path class="st0" d="M195.4,9.4V6.1h2.5v3.2L195.4,9.4L195.4,9.4z M195.4,30.3V12.4h2.5v17.9H195.4z"/>
<path class="st0" d="M201.5,30.3V6.1h2.5v24.1L201.5,30.3L201.5,30.3z"/>
<path class="st0" d="M216.5,6.1h2.5v24.1h-2.4v-2.3h-0.1c-1.1,2.1-2.2,2.8-4.3,2.8c-5.6,0-5.2-7.9-5.2-9.5c-0.2-5.2,1.5-9.4,5.4-9.4
	c1.8,0,2.9,0.8,4.1,2.3h0.1v-8H216.5z M216.5,21c0-2.4-0.1-7-3.5-7c-2.1,0-3.5,1.7-3.5,7.2c0,3.9,0.1,7.4,3.6,7.4
	c2.6,0,3.4-3.3,3.4-5.3V21z"/>
<path class="st0" d="M225.6,15.3L225.6,15.3c1.1-2.4,2.6-3.3,5.3-3.1v2.5c-3.3-0.6-5.2,1.5-5.2,4.7v10.9h-2.5V12.4h2.4V15.3z"/>
<path class="st0" d="M242.9,24.3c0.2,3.5-1.6,6.4-5.4,6.4c-3.4,0-5.8-2.3-5.8-9.5c0-3.8,1-9.4,5.7-9.4c5.8,0,5.5,5.5,5.6,9.7h-8.7
	c0.1,2.4-0.4,7.1,3.2,7.1c2.4,0,3.1-2.3,3-4.3H242.9z M240.4,19.5c-0.1-2.1,0-5.4-2.9-5.4c-3,0-3,3.3-3.1,5.4H240.4z"/>
<path class="st0" d="M248.4,14.4L248.4,14.4c1.3-1.5,2.6-2.4,4.5-2.4c2.7,0,4.4,1.4,4.4,4.6v13.8h-2.5V17.2c0-1.9-0.6-3.1-2.7-3.1
	c-0.9,0-1.8,0.4-2.5,1c-1,0.9-1.2,2-1.2,3.3v12H246v-18h2.5v2H248.4z"/>
<path class="st0" d="M260.8,12.6c1.4-0.3,1.6-2.1,1.6-3.3h-1.6V6.1h3v3.2c0,2.1-0.6,4.1-3,4.8V12.6z"/>
<path class="st0" d="M272.9,17.2c0.1-2.1-0.7-3.1-2.8-3.1c-1.8,0-2.8,0.8-2.8,2.7c0,2.3,1.9,2.6,3.6,3.3c2.6,1.2,5.2,1.8,5.2,5.2
	s-2.4,5.5-6.1,5.5c-1.6,0-3.5-0.5-4.4-1.9c-1.1-1.4-1-2.6-1-3.8h2.4c-0.1,2.2,0.6,3.5,3,3.5c2.1,0,3.4-0.8,3.4-3
	c0-2.5-2.6-2.8-4.4-3.5c-2.8-1-4.4-2-4.4-5.1s2.2-5.1,5.2-5.1c3.5,0,5.6,1.6,5.5,5.3H272.9z"/>
<path class="st0" d="M286.1,30.3V6.1h2.7v10.1h9.2V6.1h2.7v24.1H298V18.6h-9.2v11.7H286.1z"/>
<path class="st0" d="M314.9,24.3c0.2,3.5-1.6,6.4-5.4,6.4c-3.4,0-5.8-2.3-5.8-9.5c0-3.8,1-9.4,5.7-9.4c5.8,0,5.5,5.5,5.6,9.7h-8.7
	c0.1,2.4-0.4,7.1,3.2,7.1c2.4,0,3.1-2.3,3-4.3H314.9z M312.4,19.5c-0.1-2.1,0-5.4-2.9-5.4c-3,0-3,3.3-3.1,5.4H312.4z"/>
<path class="st0" d="M329,30.3c-0.2,0-0.4,0.1-0.6,0.1c-2.2,0.1-3-0.1-3.2-2.5h-0.1c-0.6,1.6-2.3,2.9-4,2.9c-3.6,0-4.6-2-4.6-5.2
	c0-0.7,0.1-3.3,2.6-4.3c1.4-0.6,5.1-2,5.4-2.3c0.5-0.4,0.5-1.1,0.5-2.1c0-2-0.8-2.8-2.8-2.8c-2.3,0-2.6,1.1-2.6,3.2h-2.3
	c-0.1-3.7,1.7-5.3,5.3-5.3c5.3,0,4.9,4.4,4.9,4.9V27c0,0.5-0.1,1.1,0.5,1.4c0.4,0.1,0.7,0.1,1.1,0L329,30.3L329,30.3z M324.9,20.6
	c-1.3,0.7-2.7,1.3-4,1.9c-1.2,0.5-1.6,1.9-1.6,3.1c0,1.8,0.5,3,2.5,3c1,0,3.1-0.7,3.1-3.6V20.6z"/>
<path class="st0" d="M331.3,30.3V6.1h2.5v24.1L331.3,30.3L331.3,30.3z"/>
<path class="st0" d="M340.4,12.4h3v2.2h-3v12.2c0,0.6-0.2,1.4,1.2,1.4h1.7v2.2h-2.8c-1.5,0-2.6-0.2-2.6-2.9v-13h-2.5v-2.2h2.5V7.5
	h2.5L340.4,12.4L340.4,12.4z"/>
<path class="st0" d="M348,30.3h-2.5V6.1h2.5v8.2h0.1c1.2-1.5,2.5-2.4,4.4-2.4c2.7,0,4.4,1.4,4.4,4.6v13.8h-2.5V17.2
	c0-1.9-0.6-3.1-2.7-3.1c-0.9,0-1.8,0.4-2.5,1c-1,0.9-1.2,2-1.2,3.3L348,30.3L348,30.3z"/>
<path class="st0" d="M378.2,12.5c0.2-2.5-1.2-4.4-3.8-4.4c-3.9,0-4.3,2.4-4.3,4.3c0,1.7,0.7,2.7,2.3,3.3c1.3,0.5,2.5,1,3.8,1.4
	c4.6,1.7,5.4,3.3,5.4,6.5c0,4.6-2.9,7.2-7.5,7.2c-2.4,0-5.2-0.7-6.6-3.8c-0.5-1.2-0.5-3.1-0.5-4.4h2.7c-0.1,3.6,0.5,5.8,4.6,5.8
	c2.7,0,4.6-1.4,4.6-4.2c0-3.7-1.5-3.7-3.9-4.6c-1.3-0.5-3.4-1.2-4.7-1.9c-2.3-1.2-2.9-3.1-2.9-5.5c0-4,2.8-6.6,6.7-6.6
	c4.4,0,7.1,2.3,6.9,6.8L378.2,12.5L378.2,12.5z"/>
<path class="st0" d="M382.4,12.4h2.6l4,15.5h0.1l4.2-15.5h2.6l-5.3,17.1c-0.3,1.1-1.1,3.7-1.6,4.6c-0.9,1.7-2.2,2.4-4.1,2.4
	c-0.6,0-1.2-0.1-1.8-0.3v-2.3c0.6,0.3,1.3,0.4,1.9,0.4c2.4,0,2.4-1.8,3.2-3.5L382.4,12.4z"/>
<path class="st0" d="M405.3,17.2c0.1-2.1-0.7-3.1-2.8-3.1c-1.8,0-2.8,0.8-2.8,2.7c0,2.3,1.9,2.6,3.6,3.3c2.6,1.2,5.2,1.8,5.2,5.2
	s-2.4,5.5-6.1,5.5c-1.6,0-3.5-0.5-4.4-1.9c-1.1-1.4-1-2.6-1-3.8h2.4c-0.1,2.2,0.6,3.5,3,3.5c2.1,0,3.4-0.8,3.4-3
	c0-2.5-2.6-2.8-4.4-3.5c-2.8-1-4.4-2-4.4-5.1s2.2-5.1,5.2-5.1c3.5,0,5.6,1.6,5.5,5.3H405.3z"/>
<path class="st0" d="M414.2,12.4h3v2.2h-3v12.2c0,0.6-0.2,1.4,1.2,1.4h1.7v2.2h-2.8c-1.5,0-2.6-0.2-2.6-2.9v-13h-2.5v-2.2h2.5V7.5
	h2.5L414.2,12.4L414.2,12.4z"/>
<path class="st0" d="M429.5,24.3c0.2,3.5-1.6,6.4-5.4,6.4c-3.4,0-5.8-2.3-5.8-9.5c0-3.8,1-9.4,5.7-9.4c5.8,0,5.5,5.5,5.6,9.7h-8.7
	c0.1,2.4-0.4,7.1,3.2,7.1c2.4,0,3.1-2.3,3-4.3H429.5z M427,19.5c-0.1-2.1,0-5.4-2.9-5.4c-3,0-3,3.3-3.1,5.4H427z"/>
<path class="st0" d="M435.2,30.3h-2.5V12.4h2.4v2.3h0.1c0.8-1.5,2.4-2.8,4.3-2.8s3.4,1.1,4.2,2.8c1.3-1.8,2.5-2.8,4.8-2.8
	c1.2,0,2.4,0.4,3.3,1.3c1.2,1.1,1.1,3.1,1.1,4.2v12.9h-2.5V17.2c0-2-0.5-3.1-2.7-3.1c-0.9,0-1.7,0.4-2.4,1c-1,0.9-1.2,2-1.2,3.3v12
	h-2.5V17.2c0-1.9-0.6-3.1-2.7-3.1c-0.9,0-1.8,0.4-2.5,1c-1,0.9-1.1,2-1.1,3.3L435.2,30.3L435.2,30.3z"/>
<path class="st1" d="M3.4,42.4c1.1-0.5,1.9-0.6,2.3-0.7c0.4-0.1,0.9-0.2,1.8-0.3c1.5-0.2,1.8-0.2,3.2-0.4c1.6-0.2,1.8-0.2,4-0.4
	c1.5-0.1,3.8-0.4,5-0.4c1.3-0.1,1.3,0,3.9-0.3c2.8-0.3,8.8-0.8,10.3-0.9c1.7-0.1,4.7-0.2,6.2-0.4c1.8-0.1,10.1-0.4,11.3-0.4
	c1.3,0,9.3-0.3,10.7-0.3c1.4,0,7.7,0.1,9,0.1c1.3,0,10.9-0.1,13.9,0.1c3.1,0.2,5.4,0.1,7.9,0.3c2.7,0.2,5.8,0.3,8,0.4
	c2.6,0.1,3,0.2,4.1,0.3c1.3,0.1,1.8,0.1,2.4,0.1c0.9,0,1.5,0.1,2.1,0.2c0.6,0.1,0.1,0,1.3,0.2c1,0.2,1.1,0.2,1.6,0.3
	c0.4,0.1,1.1,0.6,0,0.4c-1.3-0.2-0.8-0.1-1.2-0.1s-1.4,0.1,0.8,0.4c2.2,0.3,1.1,0.1,3.2,0.4c2.3,0.3,2.8,0.3,4.1,0.5
	c1.3,0.2,2.1,0.4,2.7,0.5c0.6,0.1,0.6,0.4,0.3,0.4c-0.3,0,0,0-0.6,0c-0.2,0-0.6,0.2,0,0.3c0.6,0.1-0.4-0.3,1.3,0.1
	c2.4,0.5,2.3,0.5,4.8,1c3.9,0.8,3.5,1,5.7,1.6c2.1,0.5,2.7,0.7,4,1.1c1.3,0.4,1.4,0.4,3.1,0.9c1.5,0.4,1.3,0.4,2.1,0.7
	c0.7,0.3,1.2,1.1-0.6,0.9c-2-0.2-5.3-0.9-7.4-1.1c-1.7-0.2-7.9-0.9-10.5-1.2c-2.6-0.4-12-0.8-15.8-0.9c-3.8-0.2-14.9-0.4-18.8-0.6
	c-3.9-0.2-20.1-0.3-22.2-0.3c-2.1,0-12.2-0.1-19.6,0.4c-7.4,0.4-17.1,0.9-23.5,1.4c-3.4,0.3-12.8,1.3-15.3,1.4
	c-2.4,0.2-4.4,0.5-5.7,0.8c-1.3,0.3-1.8,0-1.6-0.6c0.2-0.6,0.8-1.3,0.4-1.5c-0.4-0.3-1.3-0.6-1-1.3c0.3-0.6,0.9-0.9,0.7-1.6
	C1.7,43.1,3.4,42.4,3.4,42.4z"/>
</svg>
