<?xml version="1.0" encoding="utf-8"?>
<!-- Generator: Adobe Illustrator 22.0.1, SVG Export Plug-In . SVG Version: 6.00 Build 0)  -->
<svg version="1.1" id="Layer_1" xmlns="http://www.w3.org/2000/svg" xmlns:xlink="http://www.w3.org/1999/xlink" x="0px" y="0px"
	 viewBox="0 0 40 40" style="enable-background:new 0 0 40 40;" xml:space="preserve">
<style type="text/css">
	.st0{fill:#4070B0;}
</style>
<path class="st0" d="M20.1,3.5C11,3.5,3.6,10.9,3.6,20S11,36.5,20.1,36.5S36.6,29.1,36.6,20C36.7,10.9,29.3,3.5,20.1,3.5L20.1,3.5z
	 M30.1,15.6c0,0.2,0,0.4,0,0.6c0,7.1-5.4,14.4-14.4,14.4c-2.8,0-5.4-0.8-7.7-2.3c0,0-0.1-0.1,0-0.1c0-0.1,0.1-0.1,0.1-0.1
	c0.4,0,0.8,0.1,1.2,0.1c2.1,0,4.2-0.7,5.9-1.9c-2.1-0.2-3.8-1.6-4.5-3.5v-0.1h0.1c0.6,0.1,1.1,0.1,1.7,0C10.4,21.9,9,19.9,9,17.6
	v-0.1c0,0,0-0.1,0.1-0.1h0.1c0.6,0.3,1.2,0.5,1.8,0.6c-1.2-1-1.9-2.4-1.9-4c0-0.9,0.2-1.8,0.7-2.6l0.1-0.1H10
	c2.5,3.1,6.2,4.9,10.1,5.2c-0.1-0.3-0.1-0.7-0.1-1c0-2.8,2.3-5.1,5.1-5.1c1.4,0,2.7,0.6,3.7,1.6c1.1-0.2,2.1-0.6,3.1-1.2H32
	c0,0,0.1,0.1,0,0.1c-0.3,1-1,1.9-1.8,2.5c0.8-0.1,1.6-0.4,2.3-0.7h0.1v0.1C31.9,14,31.1,14.9,30.1,15.6L30.1,15.6z"/>
</svg>
