<?xml version="1.0" encoding="utf-8"?>
<!-- Generator: Adobe Illustrator 22.0.1, SVG Export Plug-In . SVG Version: 6.00 Build 0)  -->
<svg version="1.1" id="Layer_1" xmlns="http://www.w3.org/2000/svg" xmlns:xlink="http://www.w3.org/1999/xlink" x="0px" y="0px"
	 viewBox="0 0 40 40" style="enable-background:new 0 0 40 40;" xml:space="preserve">
<style type="text/css">
	.st0{fill:#4070B0;}
</style>
<path class="st0" d="M20,3.4C10.8,3.4,3.4,10.8,3.4,20S10.8,36.6,20,36.6S36.6,29.2,36.6,20S29.2,3.4,20,3.4L20,3.4z M21.9,25.5
	c-1.5,0-3-0.8-3.5-1.8c0,0-0.8,3.3-1,3.9c-0.6,2.2-2.4,4.5-2.6,4.6c-0.1,0.1-0.3,0.1-0.3-0.1c0-0.3-0.5-3.1,0-5.4
	c0.3-1.2,1.8-7.7,1.8-7.7S16,18.2,16,16.8c0-2.1,1.2-3.7,2.7-3.7c1.3,0,1.9,1,1.9,2.1c0,1.3-0.8,3.2-1.3,5c-0.4,1.5,0.8,2.7,2.2,2.7
	c2.7,0,4.5-3.5,4.5-7.5c0-3.1-2.1-5.4-5.9-5.4c-4.3,0-7,3.2-7,6.8c0,1.2,0.4,2.1,0.9,2.8c0.3,0.3,0.3,0.4,0.2,0.8
	c-0.1,0.3-0.2,0.9-0.3,1.1c-0.1,0.4-0.4,0.5-0.7,0.4c-2-0.8-2.9-3-2.9-5.4c0-4,3.4-8.9,10.1-8.9c5.4,0,9,3.9,9,8.1
	C29.6,21.3,26.5,25.5,21.9,25.5L21.9,25.5z"/>
</svg>
