<?xml version="1.0" encoding="utf-8"?>
<!-- Generator: Adobe Illustrator 22.0.1, SVG Export Plug-In . SVG Version: 6.00 Build 0)  -->
<svg version="1.1" id="Layer_1" xmlns="http://www.w3.org/2000/svg" xmlns:xlink="http://www.w3.org/1999/xlink" x="0px" y="0px"
	 viewBox="0 0 40 40" style="enable-background:new 0 0 40 40;" xml:space="preserve">
<style type="text/css">
	.st0{fill:#4070B0;}
	.st1{clip-path:url(#SVGID_2_);fill:#FFFFFF;}
	.st2{clip-path:url(#SVGID_4_);fill:#FFFFFF;}
	.st3{clip-path:url(#SVGID_6_);fill:#FFFFFF;}
</style>
<circle class="st0" cx="20" cy="20" r="16.6"/>
<g>
	<g>
		<defs>
			<rect id="SVGID_1_" x="8.6" y="8.1" width="23.1" height="23.1"/>
		</defs>
		<clipPath id="SVGID_2_">
			<use xlink:href="#SVGID_1_"  style="overflow:visible;"/>
		</clipPath>
		<path class="st1" d="M20.1,10.1c3.1,0,3.4,0,4.7,0.1c1.1,0.1,1.7,0.2,2.1,0.4c0.5,0.2,0.9,0.5,1.3,0.9s0.7,0.8,0.9,1.3
			c0.2,0.4,0.3,1,0.4,2.1c0.1,1.2,0.1,1.6,0.1,4.7s0,3.4-0.1,4.7c-0.1,1.1-0.2,1.7-0.4,2.1c-0.2,0.5-0.5,0.9-0.9,1.3
			s-0.8,0.7-1.3,0.9c-0.4,0.2-1,0.3-2.1,0.4c-1.2,0.1-1.6,0.1-4.7,0.1s-3.4,0-4.7-0.1c-1.1-0.1-1.7-0.2-2.1-0.4
			c-0.5-0.2-0.9-0.5-1.3-0.9c-0.4-0.4-0.7-0.8-0.9-1.3c-0.2-0.4-0.3-1-0.4-2.1c-0.1-1.2-0.1-1.6-0.1-4.7s0-3.4,0.1-4.7
			c0.1-1.1,0.2-1.7,0.4-2.1c0.2-0.5,0.5-0.9,0.9-1.3c0.4-0.4,0.8-0.7,1.3-0.9c0.4-0.2,1-0.3,2.1-0.4C16.7,10.1,17.1,10.1,20.1,10.1
			 M20.1,8.1c-3.1,0-3.5,0-4.8,0.1c-1.2,0.1-2.1,0.3-2.8,0.5c-0.8,0.3-1.4,0.7-2,1.3s-1,1.3-1.3,2s-0.5,1.6-0.5,2.8
			c-0.1,1.2-0.1,1.6-0.1,4.8c0,3.1,0,3.5,0.1,4.8c0.1,1.2,0.3,2.1,0.5,2.8c0.3,0.8,0.7,1.4,1.3,2s1.3,1,2,1.3s1.6,0.5,2.8,0.5
			c1.2,0.1,1.6,0.1,4.8,0.1c3.1,0,3.5,0,4.8-0.1c1.2-0.1,2.1-0.3,2.8-0.5c0.8-0.3,1.4-0.7,2-1.3c0.6-0.6,1-1.3,1.3-2
			s0.5-1.6,0.5-2.8c0.1-1.2,0.1-1.6,0.1-4.8c0-3.1,0-3.5-0.1-4.8c-0.1-1.2-0.3-2.1-0.5-2.8c-0.3-0.8-0.7-1.4-1.3-2
			c-0.6-0.6-1.3-1-2-1.3s-1.6-0.5-2.8-0.5C23.7,8.1,23.3,8.1,20.1,8.1"/>
	</g>
	<g>
		<defs>
			<rect id="SVGID_3_" x="8.6" y="8.1" width="23.1" height="23.1"/>
		</defs>
		<clipPath id="SVGID_4_">
			<use xlink:href="#SVGID_3_"  style="overflow:visible;"/>
		</clipPath>
		<path class="st2" d="M20.1,13.7c-3.3,0-5.9,2.7-5.9,5.9c0,3.3,2.7,5.9,5.9,5.9c3.3,0,5.9-2.7,5.9-5.9
			C26.1,16.3,23.4,13.7,20.1,13.7 M20.1,23.4c-2.1,0-3.8-1.7-3.8-3.8s1.7-3.8,3.8-3.8s3.8,1.7,3.8,3.8C24,21.7,22.3,23.4,20.1,23.4"
			/>
	</g>
	<g>
		<defs>
			<rect id="SVGID_5_" x="8.6" y="8.1" width="23.1" height="23.1"/>
		</defs>
		<clipPath id="SVGID_6_">
			<use xlink:href="#SVGID_5_"  style="overflow:visible;"/>
		</clipPath>
		<path class="st3" d="M27.7,13.4c0,0.8-0.6,1.4-1.4,1.4s-1.4-0.6-1.4-1.4c0-0.8,0.6-1.4,1.4-1.4S27.7,12.7,27.7,13.4"/>
	</g>
</g>
</svg>
